<svg xmlns="http://www.w3.org/2000/svg" viewBox="0 0 31.62 26.25"><defs><style>.cls-1,.cls-2{fill:#fff;stroke:#000;stroke-width:0.75px;}.cls-1{stroke-miterlimit:10;}.cls-2{stroke-linejoin:round;}</style></defs><title>Middel 3</title><g id="Laag_2" data-name="Laag 2"><g id="Laag_1-2" data-name="Laag 1"><rect class="cls-1" x="0.38" y="8.27" width="9.59" height="17.6" rx="4.09"/><path class="cls-2" d="M10,22.72h2.1c.25.18.51.36.79.53a13.2,13.2,0,0,0,5.78,1.84h9.19a2.17,2.17,0,0,0,1.84-2.63,2.09,2.09,0,0,0-2.36-1.05,2.33,2.33,0,0,0,2.89-1.84,2.29,2.29,0,0,0-2.37-2.1,2.2,2.2,0,0,0,2.89-1.32,2.18,2.18,0,0,0-2.1-2.1,2.19,2.19,0,0,0,2.63-1.84,2.17,2.17,0,0,0-2.37-1.84H22.05c.05-.3.13-.76.26-1.31.47-1.87,1-2.61,1.32-3.68a6.25,6.25,0,0,0-.26-3.68A2.29,2.29,0,0,0,21.79.39a2.32,2.32,0,0,0-2.37,2.1,7.27,7.27,0,0,1-.78,2.63c-.48.91-1,1.48-3.16,3.41-.76.7-1.64,1.49-2.62,2.37H10Z"/><circle cx="6.94" cy="22.59" r="1.18"/></g></g></svg>