<svg xmlns="http://www.w3.org/2000/svg" xmlns:xlink="http://www.w3.org/1999/xlink" viewBox="0 0 750 1334"><defs><style>.cls-1{fill:none;}.cls-2{fill:url(#Naamloos_verloop_79);}.cls-3{fill:url(#Naamloos_verloop_79-2);}.cls-16,.cls-4{fill:url(#Naamloos_verloop_64);}.cls-15,.cls-5{fill:url(#Naamloos_verloop_33);}.cls-6{clip-path:url(#clip-path);}.cls-7{fill:url(#Naamloos_verloop_67);}.cls-8{fill:url(#Naamloos_verloop_67-2);}.cls-9{fill:url(#Naamloos_verloop_67-3);}.cls-10{fill:url(#Naamloos_verloop_67-4);}.cls-11{clip-path:url(#clip-path-2);}.cls-12{fill:url(#Naamloos_verloop_67-5);}.cls-13{fill:url(#Naamloos_verloop_67-6);}.cls-14{fill:url(#Naamloos_verloop_67-7);}.cls-15,.cls-16{opacity:0.9;}</style><radialGradient id="Naamloos_verloop_79" cx="374" cy="666.5" r="540.15" gradientUnits="userSpaceOnUse"><stop offset="0" stop-color="#5e5e5e" stop-opacity="0.01"/><stop offset="1"/></radialGradient><radialGradient id="Naamloos_verloop_79-2" cx="-5373.73" cy="3980.72" r="375.88" gradientTransform="translate(3296.44 -6231.85) scale(0.55 1.73)" xlink:href="#Naamloos_verloop_79"/><radialGradient id="Naamloos_verloop_64" cx="-5377.52" cy="3980.4" r="404.01" gradientTransform="translate(3296.44 -6231.85) scale(0.55 1.73)" gradientUnits="userSpaceOnUse"><stop offset="0" stop-color="#2e2e2e"/><stop offset="0.29" stop-color="#2a2a2a"/><stop offset="0.59" stop-color="#1e1e1e"/><stop offset="0.89" stop-color="#0a0a0a"/><stop offset="1"/></radialGradient><radialGradient id="Naamloos_verloop_33" cx="-5401.84" cy="3888.75" r="358.44" xlink:href="#Naamloos_verloop_64"/><clipPath id="clip-path"><path class="cls-1" d="M459.1,1.47C474.86,85.22,518,339.21,508,684.19c-10.19,349-68.57,575.55-89,648.08H749V1.47Z"/></clipPath><radialGradient id="Naamloos_verloop_67" cx="-5138.74" cy="4020.22" r="370.13" gradientTransform="translate(3296.44 -6231.85) scale(0.55 1.73)" gradientUnits="userSpaceOnUse"><stop offset="0" stop-color="#79777a"/><stop offset="1"/></radialGradient><radialGradient id="Naamloos_verloop_67-2" cx="-4983.91" cy="4035.77" r="343.19" xlink:href="#Naamloos_verloop_67"/><radialGradient id="Naamloos_verloop_67-3" cx="-4851.87" cy="4035.77" r="347.8" xlink:href="#Naamloos_verloop_67"/><radialGradient id="Naamloos_verloop_67-4" cx="-4690.44" cy="4035.77" r="345.67" xlink:href="#Naamloos_verloop_67"/><clipPath id="clip-path-2"><path class="cls-1" d="M303.17,1.47C286.63,12.38,205.47,71.3,172,289.11c-37.17,241.53,11.16,503.48,36.24,639.41C250.08,1155.61,309,1277.87,341.06,1334L-1,1332.27V1.47Z"/></clipPath><radialGradient id="Naamloos_verloop_67-5" cx="-5898.31" cy="3931.71" r="663.32" xlink:href="#Naamloos_verloop_67"/><radialGradient id="Naamloos_verloop_67-6" cx="-5745.01" cy="3975.45" r="343.97" xlink:href="#Naamloos_verloop_67"/><radialGradient id="Naamloos_verloop_67-7" cx="-5582.37" cy="3978.5" r="462.41" xlink:href="#Naamloos_verloop_67"/></defs><title>voorgrondmobile</title><g id="Artboard_3" data-name="Artboard 3"><rect class="cls-2" x="-1" y="1" width="750" height="1331"/><rect class="cls-3" x="145.05" y="-2" width="401.9" height="1336"/><path d="M303.17,1.47C286.63,12.38,205.47,71.3,172,289.11c-37.17,241.53,11.16,503.48,36.24,639.41C250.08,1155.61,309,1277.87,341.06,1334L-1,1332.27V1.47Z"/><path d="M459.1,1.47C474.86,85.22,518,339.21,508,684.19c-10.19,349-68.57,575.55-89,648.08H749V1.47Z"/><path class="cls-4" d="M459.1,1.47C474.86,85.22,518,339.21,508,684.19c-10.19,349-68.57,575.55-89,648.08H749V1.47Z"/><path class="cls-5" d="M303.17,1.47C286.63,12.38,205.47,71.3,172,289.11c-37.17,241.53,11.16,503.48,36.24,639.41C250.08,1155.61,309,1277.87,341.06,1334L-1,1332.27V1.47Z"/><g class="cls-6"><path class="cls-7" d="M401.45,734.44q0-180.37,5.78-340.7T423,114.41Q433-4.54,446.43-73.48T475-142.36q15.14,0,28.59,68.88T527,114.41q10,119,15.77,279.33t5.78,340.7q0,180.38-5.78,340.71T527,1354.48q-10,119-23.43,187.88T475,1611.25q-15.13,0-28.59-68.89T423,1354.48q-10-119-15.77-279.33T401.45,734.44Zm19.76,0q0,132.81,4.2,249.27T437,1187.89q7.35,87.7,17.13,137.77t20.91,50.1q11.14,0,20.91-50.1t17.13-137.77q7.37-87.67,11.57-204.18t4.2-249.27q0-132.75-4.2-249.26T513.06,281q-7.35-87.66-17.13-137.78T475,93.12q-11.14,0-20.91,50.11T437,281q-7.37,87.72-11.57,204.17T421.21,734.44ZM475,1310.63q-10.09,0-18.81-45.09t-15.35-124q-6.62-78.91-10.4-182.87t-3.78-224.22q0-120.24,3.78-224.21t10.4-182.88q6.63-78.92,15.35-124T475,158.25q10.1,0,18.81,45.1t15.35,124q6.62,78.93,10.4,182.88t3.78,224.21q0,120.25-3.78,224.22t-10.4,182.87q-6.63,78.92-15.35,124T475,1310.63ZM445.59,734.44q0,72.69,2.32,136.54t6.3,111.47q4,47.63,9.35,75.16c3.58,18.4,7.39,27.55,11.46,27.55s7.88-9.15,11.46-27.55,6.69-43.41,9.35-75.16,4.76-68.89,6.3-111.47,2.32-88.08,2.32-136.54-.77-93.94-2.32-136.52-3.64-79.75-6.3-111.48-5.78-56.77-9.35-75.16-7.4-27.57-11.46-27.57-7.88,9.22-11.46,27.57-6.69,43.45-9.35,75.16-4.76,68.88-6.3,111.48S445.59,686,445.59,734.44Z"/><path class="cls-8" d="M529.47-74.08h60v438.4H562V549.7h27V965.56H562v192.9h28.57v438.4H529.47Zm49.82,1470.52v-60.12H548.73V787.69h29V727.57h-29V186.45h30.56V126.32H544.75V1396.44Z"/><path class="cls-9" d="M579.12-74.08H606L632.6,567.24,659-74.08h26.89V1596.86H653.38V995.62l-20.78,501-20.93-501v601.24H579.12Zm19.25,1470.52V246.57l34.23,816.69,34.08-816.69V1396.44h4V126.32h-4L632.6,950.53,598.37,126.32h-4V1396.44Z"/><path class="cls-10" d="M676.85,1596.86V-74.08h28.26q14.37,0,25.6,52.6t18.95,157.83q7.71,105.21,11.76,261.79t4.05,362q0,205.44-4.05,362t-11.76,261.8q-7.73,105.19-18.95,159.07t-25.6,53.86Zm15.28-200.42h13q22.32,0,33.7-166.59t11.38-469.72q0-303.09-11.38-468.45t-33.7-165.36h-13Zm4-60.12V186.45h9q19.41,0,30.18,144.05t10.78,429.63q0,285.6-10.78,430.9t-30.18,145.29Zm13.29-215.44q11.46,0,17.73-88.93t6.26-271.82q0-182.83-6.26-270.55T709.39,401.9Z"/></g><g class="cls-11"><path class="cls-12" d="M-.61-308.71H58.66Q70-308.71,79.44-278t16.12,90.72q6.69,60,10.45,149.4t3.74,209.44q0,85.42-1.81,145.41T104.08,417q-2.51,48-5.68,80,5,37.4,9.08,96,3.4,50.73,6.25,128.07t2.83,189.43q0,128.07-3.86,232.11t-11,177.42q-7.16,73.43-17.48,112.07t-23,38.68H-.61ZM54.8,1257.4q20,0,29.52-101.38t9.54-269.47q0-109.35-4-174.75T81.37,609.08q-5.69-42.65-12.49-58.69,5.45-18.63,9.76-58.7,3.87-34.63,6.93-94.72t3.07-153.4q0-168.07-9.09-253.46T54.8-95.28H22.1V1257.4ZM28,518.37V-31.24H54.8q14.76,0,21.23,76T82.5,243.57q0,122.74-6.47,198.77t-21.23,76Zm0,675v-611H54.57c4.69,0,9,5.8,13.06,17.34s7.53,29.36,10.56,53.36,5.41,55.62,7.15,94.72S88,833.19,88,886.55q0,162.78-9.19,234.8t-24.19,72ZM63,232.89q0-122.68-11.35-122.72H46.17V355.62h5.45Q63,355.62,63,232.89ZM51.62,1052q17.25,0,17.26-154.76T51.62,742.49H46.17V1052Z"/><path class="cls-13" d="M99.67-175.33h83.47V261.35H144.91V446H182.5V860.24H144.91v192.14h39.72v436.68h-85Zm69.24,1464.76v-59.89H126.43V683.07h40.36V623.18H126.43v-539h42.48V24.29h-48V1289.43Z"/><path class="cls-14" d="M181.47-190.21h49.72q13.83,0,25.62,43.17T277.23-20q8.65,83.82,13.51,207t4.87,283.19q0,127-3,215.88t-6.7,147.3q-4.32,66.08-9.73,111.76l27,558.74h-54l-21.61-429.23v429.23H181.47Zm45,1104.8c5.62,0,11.09-6.74,16.42-20.33l20.54,406.37h6.7L248.48,874q11.68-48.23,18.59-148.59T274,465.05q0-111.74-3.67-195.57t-10.05-141q-6.39-57.14-15-86.34c-5.76-19.45-12-29.22-18.8-29.22H203.09V1300.63h5.62v-386Zm-17.73-61V73.92h17.73q19.67,0,30.8,101.6t11.13,289.53q0,188-11.13,288.27t-30.8,100.31Zm18.81-210.79h2.37q8.22,0,14-43.19t5.73-144.76q0-101.55-5.73-144.77t-14-43.18h-2.37Z"/></g><path class="cls-15" d="M303.17,1.47C286.63,12.38,205.47,71.3,172,289.11c-37.17,241.53,11.16,503.48,36.24,639.41C250.08,1155.61,309,1277.87,341.06,1334L-1,1332.27V1.47Z"/><path class="cls-16" d="M459.1,1.47C474.86,85.22,518,339.21,508,684.19c-10.19,349-68.57,575.55-89,648.08H749V1.47Z"/></g></svg>