<svg xmlns="http://www.w3.org/2000/svg" xmlns:xlink="http://www.w3.org/1999/xlink" viewBox="0 0 1366 768"><defs><style>.cls-1{fill:none;}.cls-2{clip-path:url(#clip-path);}.cls-3{fill:url(#Naamloos_verloop_67);}.cls-4{fill:url(#Naamloos_verloop_79);}.cls-17,.cls-5{fill:url(#Naamloos_verloop_64);}.cls-16,.cls-6{fill:url(#Naamloos_verloop_33);}.cls-7{clip-path:url(#clip-path-2);}.cls-8{fill:url(#Naamloos_verloop_67-2);}.cls-9{fill:url(#Naamloos_verloop_67-3);}.cls-10{fill:url(#Naamloos_verloop_67-4);}.cls-11{fill:url(#Naamloos_verloop_67-5);}.cls-12{clip-path:url(#clip-path-3);}.cls-13{fill:url(#Naamloos_verloop_67-6);}.cls-14{fill:url(#Naamloos_verloop_67-7);}.cls-15{fill:url(#Naamloos_verloop_67-8);}.cls-16,.cls-17{opacity:0.9;}.cls-18{clip-path:url(#clip-path-4);}.cls-19{fill:url(#Naamloos_verloop_67-9);}.cls-20{fill:url(#Naamloos_verloop_67-10);}.cls-21{fill:url(#Naamloos_verloop_67-11);}.cls-22{fill:url(#Naamloos_verloop_67-12);}</style><clipPath id="clip-path"><path class="cls-1" d="M-548,0c28.7,48.33,107.33,194.91,89,394-18.55,201.42-124.89,332.14-162,374H-20V0Z"/></clipPath><radialGradient id="Naamloos_verloop_67" cx="-31682.34" cy="654.94" r="439.42" gradientTransform="translate(6200.03 -234.85) scale(0.2 1.03)" gradientUnits="userSpaceOnUse"><stop offset="0" stop-color="#79777a"/><stop offset="1"/></radialGradient><radialGradient id="Naamloos_verloop_79" cx="683" cy="384" r="554.05" gradientUnits="userSpaceOnUse"><stop offset="0" stop-color="#5e5e5e" stop-opacity="0.01"/><stop offset="1"/></radialGradient><radialGradient id="Naamloos_verloop_64" cx="628.21" cy="383.18" r="404.01" gradientUnits="userSpaceOnUse"><stop offset="0" stop-color="#2e2e2e"/><stop offset="0.29" stop-color="#2a2a2a"/><stop offset="0.59" stop-color="#1e1e1e"/><stop offset="0.89" stop-color="#0a0a0a"/><stop offset="1"/></radialGradient><radialGradient id="Naamloos_verloop_33" cx="603.9" cy="291.53" r="358.44" xlink:href="#Naamloos_verloop_64"/><clipPath id="clip-path-2"><path class="cls-1" d="M838,0c28.7,48.33,107.33,194.91,89,394C908.45,595.42,802.11,726.14,765,768h601V0Z"/></clipPath><radialGradient id="Naamloos_verloop_67-2" cx="-16638.37" cy="639.82" r="492.13" gradientTransform="translate(5397.03 -234.85) scale(0.27 1.03)" xlink:href="#Naamloos_verloop_67"/><radialGradient id="Naamloos_verloop_67-3" cx="-26162.41" cy="654.94" r="386.64" xlink:href="#Naamloos_verloop_67"/><radialGradient id="Naamloos_verloop_67-4" cx="-25495.32" cy="654.94" r="480.31" xlink:href="#Naamloos_verloop_67"/><radialGradient id="Naamloos_verloop_67-5" cx="-24679.7" cy="654.94" r="439.42" xlink:href="#Naamloos_verloop_67"/><clipPath id="clip-path-3"><path class="cls-1" d="M554,0C523.87,6.3,376.05,40.3,315,166c-67.7,139.38,20.32,290.55,66,369,76.31,131,183.66,201.61,242,234L0,768V0Z"/></clipPath><radialGradient id="Naamloos_verloop_67-6" cx="3860.87" cy="7391.53" r="101.18" gradientTransform="matrix(2.19, 0.09, -0.02, 8.16, -8188.38, -60344.05)" xlink:href="#Naamloos_verloop_67"/><radialGradient id="Naamloos_verloop_67-7" cx="3791.24" cy="7281.8" r="48.65" gradientTransform="matrix(2.19, -0.05, 0.01, 8.16, -8144.89, -58899.76)" xlink:href="#Naamloos_verloop_67"/><radialGradient id="Naamloos_verloop_67-8" cx="5600.93" cy="7353.35" r="62.45" gradientTransform="translate(-21882.99 -59657.19) scale(3.98 8.16)" xlink:href="#Naamloos_verloop_67"/><clipPath id="clip-path-4"><path class="cls-1" d="M290-2375.68c57.41,128.51,214.67,518.25,178,1047.6C430.9-792.54,218.23-444.95,144-333.66H1346v-2042Z"/></clipPath><radialGradient id="Naamloos_verloop_67-9" cx="2012.99" cy="5507.39" r="370.13" gradientTransform="translate(-3678 -15894.48) scale(2 2.66)" xlink:href="#Naamloos_verloop_67"/><radialGradient id="Naamloos_verloop_67-10" cx="2167.83" cy="5522.94" r="343.19" gradientTransform="translate(-3678 -15894.48) scale(2 2.66)" xlink:href="#Naamloos_verloop_67"/><radialGradient id="Naamloos_verloop_67-11" cx="2299.86" cy="5522.94" r="347.8" gradientTransform="translate(-3678 -15894.48) scale(2 2.66)" xlink:href="#Naamloos_verloop_67"/><radialGradient id="Naamloos_verloop_67-12" cx="2461.29" cy="5522.94" r="345.67" gradientTransform="translate(-3678 -15894.48) scale(2 2.66)" xlink:href="#Naamloos_verloop_67"/></defs><title>voorgrond tablet</title><g id="Artboard_3" data-name="Artboard 3"><g class="cls-2"><path class="cls-3" d="M-151.42,920.7V-43.6h51.49q26.16,0,46.62,30.36T-18.8,77.84q14,60.72,21.43,151.08T10,437.82q0,118.56-7.37,208.91T-18.8,797.81q-14.06,60.72-34.51,91.8T-99.93,920.7ZM-123.58,805h23.65q40.64,0,61.37-96.14t20.73-271.08q0-174.9-20.73-270.34T-99.93,72.05h-23.65Zm7.23-34.7V106.75h16.42q35.34,0,55,83.14t19.62,247.93q0,164.82-19.62,248.67t-55,83.85ZM-92.14,646q20.88,0,32.29-51.32t11.41-156.87q0-105.51-11.41-156.13t-32.29-50.6Z"/></g><rect class="cls-4" width="1366" height="768"/><path d="M554,0C523.87,6.3,376.05,40.3,315,166c-67.7,139.38,20.32,290.55,66,369,76.31,131,183.66,201.61,242,234L0,768V0Z"/><path d="M838,0c28.7,48.33,107.33,194.91,89,394C908.45,595.42,802.11,726.14,765,768h601V0Z"/><path class="cls-5" d="M838,0c28.7,48.33,107.33,194.91,89,394C908.45,595.42,802.11,726.14,765,768h601V0Z"/><path class="cls-6" d="M554,0C523.87,6.3,376.05,40.3,315,166c-67.7,139.38,20.32,290.55,66,369,76.31,131,183.66,201.61,242,234L0,768V0Z"/><g class="cls-7"><path class="cls-8" d="M733,423q0-104.1,10.53-196.62t28.71-161.2Q790.42-3.46,814.93-43.25T867-83q27.57,0,52.07,39.75T961.74,65.18q18.18,68.69,28.71,161.2T1001,423q0,104.09-10.53,196.62t-28.71,161.2q-18.18,68.68-42.68,108.42T867,929q-27.57,0-52.06-39.76T772.24,780.82q-18.18-68.66-28.71-161.2T733,423Zm36,0q0,76.63,7.65,143.85T797.7,684.68q13.39,50.61,31.2,79.51T867,793.1q20.29,0,38.09-28.91t31.2-79.51q13.4-50.59,21.06-117.83A1274.55,1274.55,0,0,0,965,423a1274.55,1274.55,0,0,0-7.66-143.85q-7.67-67.23-21.06-117.83t-31.2-79.51Q887.28,52.91,867,52.89T828.9,81.81q-17.8,28.93-31.2,79.51T776.64,279.15Q769,346.37,769,423Zm98,332.51q-18.37,0-34.26-26t-28-71.56q-12.06-45.54-18.95-105.53A1137.92,1137.92,0,0,1,778.94,423a1138.18,1138.18,0,0,1,6.89-129.4q6.9-60,18.95-105.53t28-71.56q15.87-26,34.26-26t34.26,26q15.88,26,28,71.56T948.15,293.6A1138.18,1138.18,0,0,1,955,423a1137.92,1137.92,0,0,1-6.89,129.4q-6.89,60-18.95,105.53t-28,71.56Q885.37,755.52,867,755.51ZM813.39,423a692.28,692.28,0,0,0,4.22,78.79q4.2,36.87,11.48,64.33t17,43.38q9.76,15.91,20.86,15.9t20.87-15.9q9.75-15.9,17-43.38t11.49-64.33A697,697,0,0,0,920.59,423a697.26,697.26,0,0,0-4.21-78.79q-4.23-36.87-11.49-64.33t-17-43.38Q878.1,220.62,867,220.59T846.13,236.5q-9.76,15.93-17,43.38t-11.48,64.33A692.53,692.53,0,0,0,813.39,423Z"/><path class="cls-9" d="M966.17-43.6h109.37v253h-50.1v107h49.26v240h-49.26V667.7h52v253H966.17ZM1056.89,805v-34.7h-55.66V453.73h52.88V419h-52.88V106.75h55.66V72.05H994V805Z"/><path class="cls-10" d="M1056.59-43.6h49L1154,326.51,1202.15-43.6h49V920.7h-59.28v-347L1154,862.87l-38.13-289.15v347h-59.28ZM1091.66,805V141.45L1154,612.76l62.06-471.31V805h7.24v-733h-7.24L1154,547.7,1091.66,72.05h-7.24V805Z"/><path class="cls-11" d="M1234.58,920.7V-43.6h51.49q26.16,0,46.62,30.36t34.51,91.08q14,60.72,21.43,151.08t7.37,208.9q0,118.56-7.37,208.91T1367.2,797.81q-14.06,60.72-34.51,91.8t-46.62,31.09ZM1262.42,805h23.65q40.64,0,61.37-96.14t20.73-271.08q0-174.9-20.73-270.34t-61.37-95.43h-23.65Zm7.23-34.7V106.75h16.42q35.34,0,55,83.14t19.62,247.93q0,164.82-19.62,248.67t-55,83.85ZM1293.86,646q20.88,0,32.29-51.32t11.41-156.87q0-105.51-11.41-156.13t-32.29-50.6Z"/></g><g class="cls-12"><path class="cls-13" d="M.72-179H108.66q20.67,0,37.84,17.7t29.37,52.36q12.19,34.64,19,86.21t6.83,120.87q0,49.3-3.31,83.92t-7,57.74Q186.82,267.52,181,286q9.09,21.57,16.54,55.42,6.21,29.28,11.38,73.91t5.16,109.32q0,73.9-7,134T187,761q-13,42.38-31.85,64.67t-42,22.33H.72ZM101.63,724.8q36.39,0,53.77-58.51t17.37-155.51q0-63.11-7.24-100.85T150,350.65q-10.35-24.6-22.75-33.87,9.93-10.75,17.79-33.87,7-20,12.61-54.67t5.59-88.52q0-97-16.55-146.28T101.63-55.83H42.08V724.8ZM52.83,298.3V-18.88h48.8q26.88,0,38.67,43.89t11.79,114.71q0,70.83-11.79,114.71T101.63,298.3Zm0,389.54V335.25h48.39q12.81,0,23.78,10t19.23,30.8q8.27,20.79,13,54.66T162,510.78q0,93.94-16.75,135.5t-44,41.56Zm63.69-554.28q0-70.8-20.68-70.83H85.92V204.38h9.92Q116.53,204.38,116.52,133.56ZM95.84,606.25q31.43,0,31.43-89.31t-31.43-89.3H85.92V606.25Z"/><path class="cls-14" d="M183.36-102h152V150H265.75V256.54h68.47v239H265.75V606.48h72.34v252H183.36Zm126.1,845.31V708.72H232.1V393.35h73.49V358.79H232.1v-311h77.36V13.17H222V743.28Z"/><path class="cls-15" d="M332.35-110.62H422.9q25.19,0,46.65,24.92t37.21,73.28Q522.5,36,531.36,107t8.86,163.44q0,73.3-5.51,124.58t-12.21,85q-7.87,38.15-17.71,64.5L554,867H455.58L416.2,619.3V867H332.35ZM414.24,527q15.35,0,29.92-11.73l37.4,234.51h12.2L454.39,503.51q21.27-27.83,33.86-85.75t12.6-150.23q0-64.48-6.69-112.86T475.85,73.32q-11.62-33-27.36-49.83T414.24,6.64H371.72v743.1H382V527ZM382,491.78v-450h32.29q35.82,0,56.1,58.64t20.27,167.08q0,108.48-20.27,166.36t-56.1,57.89ZM416.2,370.13h4.34q15,0,25.39-24.92t10.43-83.54q0-58.61-10.43-83.55t-25.39-24.91H416.2Z"/></g><path class="cls-16" d="M554,0C523.87,6.3,376.05,40.3,315,166c-67.7,139.38,20.32,290.55,66,369,76.31,131,183.66,201.61,242,234L0,768V0Z"/><path class="cls-17" d="M838,0c28.7,48.33,107.33,194.91,89,394C908.45,595.42,802.11,726.14,765,768h601V0Z"/><g class="cls-18"><path class="cls-19" d="M80-1251q0-276.78,21.06-522.79t57.42-428.6q36.36-182.53,85.37-288.31T348-2596.37q55.13,0,104.13,105.69t85.37,288.31q36.36,182.63,57.43,428.6T616-1251q0,276.77-21.05,522.8t-57.43,428.6Q501.11-117,452.11-11.29T348,94.42q-55.12,0-104.13-105.71T158.48-299.58Q122.1-482.1,101.06-728.18T80-1251Zm72,0q0,203.79,15.32,382.48T209.4-555.2q26.79,134.58,62.4,211.41T348-266.92q40.57,0,76.19-76.87t62.4-211.41q26.79-134.52,42.11-313.3T544-1251q0-203.7-15.31-382.47t-42.11-313.3q-26.82-134.49-62.4-211.4T348-2235q-40.59,0-76.18,76.9t-62.4,211.4q-26.82,134.63-42.11,313.3T152-1251ZM348-366.86q-36.75,0-68.52-69.19t-55.9-190.28q-24.12-121.08-37.9-280.6T171.88-1251q0-184.5,13.78-344t37.9-280.62q24.12-121.08,55.9-190.26T348-2135.11q36.75,0,68.53,69.21t55.89,190.26q24.12,121.13,37.9,280.62t13.78,344q0,184.51-13.78,344.05t-37.9,280.6Q448.28-505.25,416.51-436T348-366.86ZM240.79-1251q0,111.54,8.42,209.5t23,171.06q14.54,73.06,34.07,115.32T348-712.82q22.2,0,41.73-42.28t34.07-115.32q14.54-73,23-171.06t8.42-209.5q0-111.42-8.42-209.49t-23-171.06q-14.55-73-34.07-115.32T348-1789.15q-22.22,0-41.73,42.3t-34.07,115.32q-14.55,73-23,171.06T240.79-1251Z"/><path class="cls-20" d="M546.33-2491.61H765.08v672.7H664.89v284.46h98.52v638.11H664.89v296H769V72.34H546.33ZM727.78-235.19v-92.25H616.47v-841.83H722.22v-92.26H616.47v-830.31H727.78v-92.26H602V-235.19Z"/><path class="cls-21" d="M727.19-2491.61h98L922-1507.54l96.29-984.07h98v2564H997.7V-850.23L922-81.41,845.75-850.23V72.34H727.19ZM797.32-235.19V-1999.58L922-746.43l124.12-1253.15V-235.19h14.48V-2184.1h-14.48L922-919.41,797.32-2184.1H782.85V-235.19Z"/><path class="cls-22" d="M1083.17,72.34v-2564h103q52.32,0,93.23,80.73t69,242.16q28.11,161.46,42.86,401.71T1406-1211.56q0,315.24-14.75,555.46t-42.86,401.71Q1320.28-93,1279.37-10.3t-93.23,82.64Zm55.66-307.53h47.31q81.27,0,122.73-255.62t41.47-720.75q0-465.07-41.47-718.81T1186.14-2184.1h-47.31Zm14.47-92.25v-1764.4h32.84q70.68,0,109.93,221t39.24,659.24q0,438.22-39.24,661.18T1186.14-327.44ZM1201.73-658q41.74,0,64.56-136.45t22.82-417.09q0-280.55-22.82-415.15t-64.56-134.53Z"/></g></g></svg>