<svg xmlns="http://www.w3.org/2000/svg" xmlns:xlink="http://www.w3.org/1999/xlink" viewBox="0 0 2732 2048"><defs><style>.cls-1{fill:none;}.cls-2{clip-path:url(#clip-path);}.cls-3{fill:url(#Naamloos_verloop_67);}.cls-4{fill:url(#Naamloos_verloop_79);}.cls-17,.cls-5{fill:url(#Naamloos_verloop_33);}.cls-16,.cls-6{fill:url(#Naamloos_verloop_33-2);}.cls-7{clip-path:url(#clip-path-2);}.cls-8{fill:url(#Naamloos_verloop_67-2);}.cls-9{fill:url(#Naamloos_verloop_67-3);}.cls-10{fill:url(#Naamloos_verloop_67-4);}.cls-11{fill:url(#Naamloos_verloop_67-5);}.cls-12{clip-path:url(#clip-path-3);}.cls-13{fill:url(#Naamloos_verloop_67-6);}.cls-14{fill:url(#Naamloos_verloop_67-7);}.cls-15{fill:url(#Naamloos_verloop_67-8);}.cls-16,.cls-17{opacity:0.9;}</style><clipPath id="clip-path"><path class="cls-1" d="M-1111,3.32c57.41,128.51,214.67,518.25,178,1047.6-37.1,535.54-249.77,883.13-324,994.42H-55V3.32Z"/></clipPath><radialGradient id="Naamloos_verloop_67" cx="1060.29" cy="7901.94" r="345.67" gradientTransform="translate(-2277 -19840.96) scale(2 2.66)" gradientUnits="userSpaceOnUse"><stop offset="0" stop-color="#79777a"/><stop offset="1"/></radialGradient><radialGradient id="Naamloos_verloop_79" cx="1773" cy="7835.9" r="375.88" gradientTransform="translate(-2277 -19758.44) scale(2 2.65)" gradientUnits="userSpaceOnUse"><stop offset="0" stop-color="#5e5e5e" stop-opacity="0.01"/><stop offset="1"/></radialGradient><radialGradient id="Naamloos_verloop_33" cx="1769.21" cy="7846.56" r="404.01" gradientTransform="translate(-2277 -19840.96) scale(2 2.66)" gradientUnits="userSpaceOnUse"><stop offset="0" stop-color="#2e2e2e"/><stop offset="0.29" stop-color="#2a2a2a"/><stop offset="0.59" stop-color="#1e1e1e"/><stop offset="0.89" stop-color="#0a0a0a"/><stop offset="1"/></radialGradient><radialGradient id="Naamloos_verloop_33-2" cx="1744.9" cy="7754.91" r="358.44" xlink:href="#Naamloos_verloop_33"/><clipPath id="clip-path-2"><path class="cls-1" d="M1681,3.32c57.41,128.51,214.67,518.25,178,1047.6-37.1,535.54-249.77,883.13-324,994.42H2737V3.32Z"/></clipPath><radialGradient id="Naamloos_verloop_67-2" cx="2007.99" cy="7886.39" r="370.13" xlink:href="#Naamloos_verloop_67"/><radialGradient id="Naamloos_verloop_67-3" cx="2162.83" cy="7901.94" r="343.19" xlink:href="#Naamloos_verloop_67"/><radialGradient id="Naamloos_verloop_67-4" cx="2294.86" cy="7901.94" r="347.8" xlink:href="#Naamloos_verloop_67"/><radialGradient id="Naamloos_verloop_67-5" cx="2456.29" cy="7901.94" r="345.67" xlink:href="#Naamloos_verloop_67"/><clipPath id="clip-path-3"><path class="cls-1" d="M1113,3.32c-60.25,16.75-355.89,107.16-478,441.37-135.4,370.61,40.64,772.55,132,981.13,152.62,348.45,367.32,536.05,484,622.18L5,2045.34V3.32Z"/></clipPath><radialGradient id="Naamloos_verloop_67-6" cx="1248.42" cy="7797.87" r="663.32" xlink:href="#Naamloos_verloop_67"/><radialGradient id="Naamloos_verloop_67-7" cx="1401.72" cy="7841.62" r="343.97" xlink:href="#Naamloos_verloop_67"/><radialGradient id="Naamloos_verloop_67-8" cx="1564.36" cy="7844.66" r="462.41" xlink:href="#Naamloos_verloop_67"/></defs><title>voorgronddesktop</title><g id="Artboard_3" data-name="Artboard 3"><g class="cls-2"><path class="cls-3" d="M-317.83,2451.34v-2564h103q52.32,0,93.23,80.73t69,242.16Q-24.5,371.74-9.75,612T5,1167.44Q5,1482.68-9.75,1722.9t-42.86,401.71q-28.11,161.43-69,244.09t-93.23,82.64Zm55.66-307.53h47.31q81.27,0,122.73-255.62t41.47-720.75q0-465.08-41.47-718.81T-214.86,194.9h-47.31Zm14.47-92.25V287.16h32.84q70.68,0,109.93,221t39.24,659.24q0,438.22-39.24,661.18t-109.93,222.94ZM-199.27,1721q41.75,0,64.56-136.45t22.82-417.09q0-280.55-22.82-415.15t-64.56-134.53Z"/></g><rect class="cls-4" x="537" y="3" width="1464" height="2045"/><path d="M1113,3.32c-60.25,16.75-355.89,107.16-478,441.37-135.4,370.61,40.64,772.55,132,981.13,152.62,348.45,367.32,536.05,484,622.18L5,2045.34V3.32Z"/><path d="M1681,3.32c57.41,128.51,214.67,518.25,178,1047.6-37.1,535.54-249.77,883.13-324,994.42H2737V3.32Z"/><path class="cls-5" d="M1681,3.32c57.41,128.51,214.67,518.25,178,1047.6-37.1,535.54-249.77,883.13-324,994.42H2737V3.32Z"/><path class="cls-6" d="M1113,3.32c-60.25,16.75-355.89,107.16-478,441.37-135.4,370.61,40.64,772.55,132,981.13,152.62,348.45,367.32,536.05,484,622.18L5,2045.34V3.32Z"/><g class="cls-7"><path class="cls-8" d="M1471,1128q0-276.78,21.06-522.79t57.42-428.6q36.36-182.53,85.37-288.31T1739-217.37q55.13,0,104.13,105.69t85.37,288.31q36.36,182.63,57.43,428.6T2007,1128q0,276.76-21,522.8t-57.43,428.6q-36.37,182.63-85.37,288.29T1739,2473.42q-55.12,0-104.13-105.71t-85.37-288.29q-36.37-182.52-57.42-428.6T1471,1128Zm72,0q0,203.79,15.32,382.48t42.11,313.3q26.79,134.58,62.4,211.41t76.18,76.87q40.57,0,76.19-76.87t62.4-211.41q26.79-134.52,42.11-313.3T1935,1128q0-203.7-15.31-382.47t-42.11-313.3q-26.82-134.49-62.4-211.4T1739,144q-40.59,0-76.18,76.9t-62.4,211.4q-26.82,134.63-42.11,313.3T1543,1128Zm196,884.12q-36.75,0-68.52-69.19t-55.9-190.28q-24.12-121.08-37.9-280.6t-13.78-344q0-184.5,13.78-344t37.9-280.62q24.12-121.08,55.9-190.26T1739,243.89q36.75,0,68.53,69.21t55.89,190.26q24.12,121.13,37.9,280.62t13.78,344q0,184.51-13.78,344t-37.9,280.6q-24.12,121.08-55.89,190.28T1739,2012.14ZM1631.79,1128q0,111.54,8.42,209.5t23,171.06q14.53,73.07,34.07,115.32t41.73,42.28q22.2,0,41.73-42.28t34.07-115.32q14.54-73,23-171.06t8.42-209.5q0-111.42-8.42-209.49t-23-171.06q-14.55-73-34.07-115.32T1739,589.85q-22.21,0-41.73,42.3t-34.07,115.32q-14.55,73-23,171.06T1631.79,1128Z"/><path class="cls-9" d="M1937.33-112.61h218.75v672.7H2055.89V844.55h98.52v638.11h-98.52v296H2160v672.69H1937.33Zm181.45,2256.42v-92.25H2007.47V1209.73h105.75v-92.26H2007.47V287.16h111.31V194.9H1993V2143.81Z"/><path class="cls-10" d="M2118.19-112.61h98L2313,871.46l96.29-984.07h98v2564H2388.7V1528.77L2313,2297.59l-76.25-768.82v922.57H2118.19Zm70.13,2256.42V379.42L2313,1632.57,2437.12,379.42V2143.81h14.48V194.9h-14.48L2313,1459.59,2188.32,194.9h-14.47V2143.81Z"/><path class="cls-11" d="M2474.17,2451.34v-2564h103q52.32,0,93.23,80.73t69,242.16Q2767.5,371.74,2782.25,612T2797,1167.44q0,315.24-14.75,555.46t-42.86,401.71q-28.11,161.43-69,244.09t-93.23,82.64Zm55.66-307.53h47.31q81.27,0,122.73-255.62t41.47-720.75q0-465.08-41.47-718.81T2577.14,194.9h-47.31Zm14.47-92.25V287.16h32.84q70.68,0,109.93,221t39.24,659.24q0,438.22-39.24,661.18t-109.93,222.94ZM2592.73,1721q41.74,0,64.56-136.45t22.82-417.09q0-280.55-22.82-415.15t-64.56-134.53Z"/></g><g class="cls-12"><path class="cls-13" d="M6.43-472.62H222.32q41.35,0,75.69,47.07t58.73,139.2q24.39,92.1,38.05,229.24t13.64,321.38q0,131.09-6.61,223.12T387.76,640.91q-9.12,73.7-20.68,122.82,18.18,57.38,33.08,147.37,12.4,77.82,22.75,196.51t10.34,290.66q0,196.53-14.06,356.16t-40.12,272.24q-26.06,112.66-63.69,172t-84,59.35H6.43ZM208.26,1930.47q72.78,0,107.53-155.56t34.75-413.49q0-167.81-14.48-268.15t-31-157.6q-20.68-65.45-45.5-90.07Q279.4,817,295.11,755.54q14.07-53.16,25.23-145.35t11.17-235.38q0-257.91-33.09-388.92t-90.16-131H89.15V1930.47Zm-97.6-1134V-46.87h97.6q53.76,0,77.34,116.68t23.58,305q0,188.35-23.58,305T208.26,796.47Zm0,1035.74V894.72h96.77q25.63,0,47.57,26.62t38.46,81.87q16.55,55.27,26.05,145.34T329,1361.42q0,249.78-33.5,360.28t-88.1,110.51ZM238,358.43q0-188.25-41.36-188.32H176.83V546.75h19.85Q238,546.75,238,358.43ZM196.68,1615.25q62.85,0,62.86-237.45t-62.86-237.44H176.83v474.89Z"/><path class="cls-14" d="M371.72-268h304V402.09H536.5V685.44H673.44V1321H536.5v294.84H681.17v670H371.72Zm252.2,2247.57v-91.9H469.2V1049.19h147v-91.9h-147v-827H623.92V38.34H449.08V1979.61Z"/><path class="cls-15" d="M669.69-290.8H850.8q50.37,0,93.3,66.25t74.41,194.86q31.48,128.6,49.22,317.6t17.71,434.54q0,194.92-11,331.25t-24.41,226q-15.77,101.4-35.43,171.5L1113,2308.57H916.15L837.41,1650v658.62H669.69ZM833.47,1404.44c20.47,0,40.42-10.34,59.84-31.18l74.81,623.53h24.41l-78.74-654.7q42.53-74,67.71-228t25.2-399.44q0-171.46-13.38-300.09T956.7,198.28Q933.47,110.61,902,65.79T833.47,21h-85V1996.79h20.48V1404.44Zm-64.56-93.53V114.49h64.56q71.64,0,112.21,155.9t40.55,444.27q0,288.44-40.55,442.32T833.47,1310.91Zm68.5-323.45h8.66q29.91,0,50.79-66.27t20.87-222.12q0-155.82-20.87-222.15t-50.79-66.24h-8.66Z"/></g><path class="cls-16" d="M1113,3.32c-60.25,16.75-355.89,107.16-478,441.37-135.4,370.61,40.64,772.55,132,981.13,152.62,348.45,367.32,536.05,484,622.18L5,2045.34V3.32Z"/><path class="cls-17" d="M1681,3.32c57.41,128.51,214.67,518.25,178,1047.6-37.1,535.54-249.77,883.13-324,994.42H2737V3.32Z"/></g></svg>