<svg xmlns="http://www.w3.org/2000/svg" xmlns:xlink="http://www.w3.org/1999/xlink" viewBox="0 0 1366 768"><defs><style>.cls-1{fill:none;}.cls-2{clip-path:url(#clip-path);}.cls-3{fill:url(#Naamloos_verloop_67);}.cls-4{fill:url(#Naamloos_verloop_67-2);}.cls-5{fill:url(#Naamloos_verloop_67-3);}.cls-6{fill:url(#Naamloos_verloop_67-4);}.cls-7{fill:url(#Naamloos_verloop_79);}</style><clipPath id="clip-path"><path class="cls-1" d="M310-2375.68c57.41,128.51,214.67,518.25,178,1047.6C450.9-792.54,238.23-444.95,164-333.66H1366v-2042Z"/></clipPath><radialGradient id="Naamloos_verloop_67" cx="636.99" cy="5507.39" r="370.13" gradientTransform="translate(-906 -15894.48) scale(2 2.66)" gradientUnits="userSpaceOnUse"><stop offset="0" stop-color="#79777a"/><stop offset="1"/></radialGradient><radialGradient id="Naamloos_verloop_67-2" cx="791.83" cy="5522.94" r="343.19" xlink:href="#Naamloos_verloop_67"/><radialGradient id="Naamloos_verloop_67-3" cx="923.86" cy="5522.94" r="347.8" xlink:href="#Naamloos_verloop_67"/><radialGradient id="Naamloos_verloop_67-4" cx="1085.29" cy="5522.94" r="345.67" xlink:href="#Naamloos_verloop_67"/><radialGradient id="Naamloos_verloop_79" cx="683" cy="383" r="554.05" gradientUnits="userSpaceOnUse"><stop offset="0" stop-color="#5e5e5e" stop-opacity="0.01"/><stop offset="1"/></radialGradient></defs><title>backgroundtablet</title><g id="Artboard_3" data-name="Artboard 3"><g class="cls-2"><path class="cls-3" d="M100-1251q0-276.78,21.06-522.79t57.42-428.6q36.36-182.53,85.37-288.31T368-2596.37q55.13,0,104.13,105.69t85.37,288.31q36.36,182.63,57.43,428.6T636-1251q0,276.77-21.05,522.8t-57.43,428.6Q521.11-117,472.11-11.29T368,94.42q-55.12,0-104.13-105.71T178.48-299.58Q142.1-482.1,121.06-728.18T100-1251Zm72,0q0,203.79,15.32,382.48T229.4-555.2q26.79,134.58,62.4,211.41T368-266.92q40.57,0,76.19-76.87t62.4-211.41q26.79-134.52,42.11-313.3T564-1251q0-203.7-15.31-382.47t-42.11-313.3q-26.82-134.49-62.4-211.4T368-2235q-40.59,0-76.18,76.9t-62.4,211.4q-26.82,134.63-42.11,313.3T172-1251ZM368-366.86q-36.75,0-68.52-69.19t-55.9-190.28q-24.12-121.08-37.9-280.6T191.88-1251q0-184.5,13.78-344t37.9-280.62q24.12-121.08,55.9-190.26T368-2135.11q36.75,0,68.53,69.21t55.89,190.26q24.12,121.13,37.9,280.62t13.78,344q0,184.51-13.78,344.05t-37.9,280.6Q468.28-505.25,436.51-436T368-366.86ZM260.79-1251q0,111.54,8.42,209.5t23,171.06q14.54,73.06,34.07,115.32T368-712.82q22.2,0,41.73-42.28t34.07-115.32q14.54-73,23-171.06t8.42-209.5q0-111.42-8.42-209.49t-23-171.06q-14.55-73-34.07-115.32T368-1789.15q-22.22,0-41.73,42.3t-34.07,115.32q-14.55,73-23,171.06T260.79-1251Z"/><path class="cls-4" d="M566.33-2491.61H785.08v672.7H684.89v284.46h98.52v638.11H684.89v296H789V72.34H566.33ZM747.78-235.19v-92.25H636.47v-841.83H742.22v-92.26H636.47v-830.31H747.78v-92.26H622V-235.19Z"/><path class="cls-5" d="M747.19-2491.61h98L942-1507.54l96.29-984.07h98v2564H1017.7V-850.23L942-81.41,865.75-850.23V72.34H747.19ZM817.32-235.19V-1999.58L942-746.43l124.12-1253.15V-235.19h14.48V-2184.1h-14.48L942-919.41,817.32-2184.1H802.85V-235.19Z"/><path class="cls-6" d="M1103.17,72.34v-2564h103q52.32,0,93.23,80.73t69,242.16q28.11,161.46,42.86,401.71T1426-1211.56q0,315.24-14.75,555.46t-42.86,401.71Q1340.28-93,1299.37-10.3t-93.23,82.64Zm55.66-307.53h47.31q81.27,0,122.73-255.62t41.47-720.75q0-465.07-41.47-718.81T1206.14-2184.1h-47.31Zm14.47-92.25v-1764.4h32.84q70.68,0,109.93,221t39.24,659.24q0,438.22-39.24,661.18T1206.14-327.44ZM1221.73-658q41.74,0,64.56-136.45t22.82-417.09q0-280.55-22.82-415.15t-64.56-134.53Z"/></g><rect class="cls-7" y="-1" width="1366" height="768"/></g></svg>