<svg xmlns="http://www.w3.org/2000/svg" xmlns:xlink="http://www.w3.org/1999/xlink" viewBox="0 0 1366 768"><defs><style>.cls-1{fill:none;}.cls-2{font-size:24.92px;font-family:MyriadPro-Regular, Myriad Pro;}.cls-3{letter-spacing:0em;}.cls-4{letter-spacing:-0.01em;}.cls-5{letter-spacing:0em;}.cls-6{letter-spacing:-0.01em;}.cls-7{letter-spacing:-0.01em;}.cls-8{letter-spacing:0.01em;}.cls-9{letter-spacing:0.02em;}.cls-10{letter-spacing:-0.01em;}.cls-11{letter-spacing:-0.02em;}.cls-12{letter-spacing:0.01em;}.cls-13{letter-spacing:-0.02em;}.cls-14{letter-spacing:-0.15em;}.cls-15{letter-spacing:-0.01em;}.cls-16{letter-spacing:-0.08em;}.cls-17{letter-spacing:0em;}.cls-18{letter-spacing:-0.03em;}.cls-19{letter-spacing:-0.15em;}.cls-20{letter-spacing:0em;}.cls-21{letter-spacing:0em;}.cls-22{letter-spacing:-0.01em;}.cls-23{letter-spacing:0.01em;}.cls-24{letter-spacing:-0.01em;}.cls-25{letter-spacing:0.01em;}.cls-26{letter-spacing:-0.01em;}.cls-27{letter-spacing:0.02em;}.cls-28{letter-spacing:0.02em;}.cls-29{letter-spacing:-0.04em;}.cls-30{letter-spacing:-0.05em;}.cls-31{letter-spacing:-0.01em;}.cls-32{letter-spacing:-0.02em;}.cls-33{letter-spacing:0em;}.cls-34{letter-spacing:-0.11em;}.cls-35{letter-spacing:-0.09em;}.cls-36{letter-spacing:0em;}.cls-37{letter-spacing:0em;}.cls-38{letter-spacing:-0.01em;}.cls-39{letter-spacing:-0.01em;}.cls-40{fill:url(#Naamloos_verloop_79);}.cls-41,.cls-53{fill:url(#Naamloos_verloop_64);}.cls-42,.cls-52{fill:url(#Naamloos_verloop_33);}.cls-43{clip-path:url(#clip-path);}.cls-44{fill:url(#Naamloos_verloop_67);}.cls-45{fill:url(#Naamloos_verloop_67-2);}.cls-46{fill:url(#Naamloos_verloop_67-3);}.cls-47{fill:url(#Naamloos_verloop_67-4);}.cls-48{clip-path:url(#clip-path-2);}.cls-49{fill:url(#Naamloos_verloop_67-5);}.cls-50{fill:url(#Naamloos_verloop_67-6);}.cls-51{fill:url(#Naamloos_verloop_67-7);}.cls-52,.cls-53{opacity:0.9;}</style><radialGradient id="Naamloos_verloop_79" cx="632" cy="383.5" r="375.88" gradientUnits="userSpaceOnUse"><stop offset="0" stop-color="#5e5e5e" stop-opacity="0.01"/><stop offset="1"/></radialGradient><radialGradient id="Naamloos_verloop_64" cx="628.21" cy="383.18" r="404.01" gradientUnits="userSpaceOnUse"><stop offset="0" stop-color="#2e2e2e"/><stop offset="0.29" stop-color="#2a2a2a"/><stop offset="0.59" stop-color="#1e1e1e"/><stop offset="0.89" stop-color="#0a0a0a"/><stop offset="1"/></radialGradient><radialGradient id="Naamloos_verloop_33" cx="603.9" cy="291.53" r="358.44" xlink:href="#Naamloos_verloop_64"/><clipPath id="clip-path"><path class="cls-1" d="M838,0c28.7,48.33,107.33,194.91,89,394C908.45,595.42,802.11,726.14,765,768h601V0Z"/></clipPath><radialGradient id="Naamloos_verloop_67" cx="2972.68" cy="432.69" r="492.13" gradientTransform="translate(57.64 -21.88) scale(0.27 1.03)" gradientUnits="userSpaceOnUse"><stop offset="0" stop-color="#79777a"/><stop offset="1"/></radialGradient><radialGradient id="Naamloos_verloop_67-2" cx="3570.13" cy="447.81" r="386.64" gradientTransform="translate(315.21 -21.88) scale(0.2 1.03)" xlink:href="#Naamloos_verloop_67"/><radialGradient id="Naamloos_verloop_67-3" cx="4237.22" cy="447.81" r="480.31" gradientTransform="translate(315.21 -21.88) scale(0.2 1.03)" xlink:href="#Naamloos_verloop_67"/><radialGradient id="Naamloos_verloop_67-4" cx="5052.84" cy="447.81" r="439.42" gradientTransform="translate(315.21 -21.88) scale(0.2 1.03)" xlink:href="#Naamloos_verloop_67"/><clipPath id="clip-path-2"><path class="cls-1" d="M554,0C523.87,6.3,376.05,40.3,315,166c-67.7,139.38,20.32,290.55,66,369,76.31,131,183.66,201.61,242,234L0,768V0Z"/></clipPath><radialGradient id="Naamloos_verloop_67-5" cx="-121.1" cy="724.62" r="101.18" gradientTransform="matrix(2.19, 0.09, -0.02, 8.16, 389.36, -5569.04)" xlink:href="#Naamloos_verloop_67"/><radialGradient id="Naamloos_verloop_67-6" cx="-205.63" cy="669.3" r="48.65" gradientTransform="matrix(2.19, -0.05, 0.01, 8.16, 702.85, -5095.84)" xlink:href="#Naamloos_verloop_67"/><radialGradient id="Naamloos_verloop_67-7" cx="106.18" cy="721.92" r="62.45" gradientTransform="translate(0.47 -5513.01) scale(3.98 8.16)" xlink:href="#Naamloos_verloop_67"/></defs><title>Tekengebied 10</title><g id="Artboard_3" data-name="Artboard 3"><text class="cls-2" transform="translate(311.69 95.56)"><tspan class="cls-3">V</tspan><tspan x="13.78" y="0">lak </tspan><tspan class="cls-4" x="48.64" y="0">v</tspan><tspan x="60.38" y="0">oo</tspan><tspan class="cls-4" x="87.74" y="0">r</tspan><tspan x="95.64" y="0">d</tspan><tspan class="cls-5" x="109.69" y="0">a</tspan><tspan x="121.6" y="0">t ik de bus uitstap bedank ik de buschau</tspan><tspan class="cls-6" x="536.87" y="0">ff</tspan><tspan x="551.08" y="0">eur via de </tspan><tspan x="0" y="29.9">spiegel </tspan><tspan class="cls-4" x="79.94" y="29.9">v</tspan><tspan x="91.68" y="29.9">oor zijn diens</tspan><tspan class="cls-7" x="230.2" y="29.9">t</tspan><tspan x="238.3" y="29.9">en. </tspan><tspan class="cls-8" x="275.05" y="29.9">H</tspan><tspan x="291.55" y="29.9">ij </tspan><tspan class="cls-9" x="308.72" y="29.9">z</tspan><tspan class="cls-5" x="319.98" y="29.9">w</tspan><tspan x="338.22" y="29.9">aait j</tspan><tspan class="cls-10" x="387.66" y="29.9">o</tspan><tspan x="401.17" y="29.9">viaal </tspan><tspan class="cls-7" x="454.17" y="29.9">t</tspan><tspan x="462.27" y="29.9">eru</tspan><tspan class="cls-11" x="496.63" y="29.9">g</tspan><tspan x="510.19" y="29.9" xml:space="preserve">.     </tspan><tspan class="cls-12" x="541.76" y="29.9">M</tspan><tspan x="562.09" y="29.9">ijn</tspan><tspan x="0" y="59.81" xml:space="preserve">  v</tspan><tspan class="cls-4" x="22.55" y="59.81">r</tspan><tspan x="30.45" y="59.81">ouw is een </tspan><tspan class="cls-7" x="146.55" y="59.81">g</tspan><tspan class="cls-4" x="160.33" y="59.81">r</tspan><tspan x="168.23" y="59.81">oot fan </tspan><tspan class="cls-5" x="247.52" y="59.81">v</tspan><tspan x="259.4" y="59.81">an </tspan><tspan class="cls-13" x="290.53" y="59.81">u</tspan><tspan class="cls-14" x="303.71" y="59.81">’</tspan><tspan x="305.03" y="59.81">, </tspan><tspan class="cls-4" x="315.47" y="59.81">r</tspan><tspan x="323.37" y="59.81">oept hi</tspan><tspan class="cls-15" x="396.9" y="59.81">j</tspan><tspan x="402.69" y="59.81">.</tspan><tspan class="cls-16" x="407.84" y="59.81"> </tspan><tspan x="411.06" y="59.81">‘</tspan><tspan class="cls-17" x="416.22" y="59.81">D</tspan><tspan x="432.91" y="59.81">oe haar de </tspan><tspan class="cls-7" x="547.46" y="59.81">g</tspan><tspan class="cls-4" x="561.24" y="59.81">r</tspan><tspan x="569.14" y="59.81">oe</tspan><tspan class="cls-7" x="595.31" y="59.81">t</tspan><tspan x="603.41" y="59.81">e</tspan><tspan class="cls-18" x="615.89" y="59.81">n</tspan><tspan class="cls-19" x="628.9" y="59.81">’</tspan><tspan x="630.22" y="59.81">, </tspan><tspan class="cls-10" x="0" y="89.71">z</tspan><tspan x="10.49" y="89.71">eg ik en stap ui</tspan><tspan class="cls-20" x="165.73" y="89.71">t</tspan><tspan x="173.91" y="89.71">. </tspan><tspan class="cls-15" x="184.35" y="89.71">C</tspan><tspan x="198.53" y="89.71">e</tspan><tspan class="cls-5" x="211.01" y="89.71">n</tspan><tspan x="224.74" y="89.71">t</tspan><tspan class="cls-3" x="232.99" y="89.71">r</tspan><tspan x="241.01" y="89.71">aal </tspan><tspan class="cls-20" x="276.2" y="89.71">S</tspan><tspan x="288.41" y="89.71">t</tspan><tspan class="cls-5" x="296.66" y="89.71">a</tspan><tspan x="308.57" y="89.71">tion. </tspan><tspan class="cls-8" x="360.6" y="89.71">I</tspan><tspan x="366.8" y="89.71">k duw mijn </tspan><tspan class="cls-10" x="486.96" y="89.71">z</tspan><tspan x="497.45" y="89.71">oon </tspan><tspan class="cls-4" x="543.93" y="89.71">v</tspan><tspan x="555.66" y="89.71">oo</tspan><tspan class="cls-9" x="583.02" y="89.71">r</tspan><tspan class="cls-21" x="591.77" y="89.71">t</tspan><tspan x="599.94" y="89.71">.</tspan><tspan class="cls-8" x="0" y="119.61">H</tspan><tspan x="16.5" y="119.61">ij slaap</tspan><tspan class="cls-21" x="87.61" y="119.61">t</tspan><tspan x="95.79" y="119.61">. Zich onbewust </tspan><tspan class="cls-5" x="265.76" y="119.61">v</tspan><tspan x="277.65" y="119.61">an de last die er op zijn schouders </tspan><tspan x="0" y="149.52">rus</tspan><tspan class="cls-21" x="31.75" y="149.52">t</tspan><tspan x="39.92" y="149.52">. </tspan><tspan class="cls-22" x="50.36" y="149.52">Z</tspan><tspan x="63.84" y="149.52">oon zijn </tspan><tspan class="cls-5" x="151.98" y="149.52">v</tspan><tspan x="163.87" y="149.52">an de </tspan><tspan class="cls-7" x="226.81" y="149.52">g</tspan><tspan class="cls-4" x="240.59" y="149.52">r</tspan><tspan x="248.49" y="149.52">o</tspan><tspan class="cls-7" x="262.17" y="149.52">t</tspan><tspan x="270.27" y="149.52">e </tspan><tspan class="cls-23" x="288.04" y="149.52">M</tspan><tspan x="308.22" y="149.52">ax </tspan><tspan class="cls-22" x="337.05" y="149.52">J</tspan><tspan x="345.97" y="149.52">. </tspan><tspan class="cls-23" x="356.41" y="149.52">M</tspan><tspan x="376.6" y="149.52">ol</tspan><tspan class="cls-24" x="396.16" y="149.52">o</tspan><tspan x="409.66" y="149.52">vich. Je gee</tspan><tspan class="cls-25" x="528.8" y="149.52">f</tspan><tspan x="536.35" y="149.52">t het hem</tspan><tspan x="0" y="179.42"> </tspan><tspan class="cls-7" x="5.28" y="179.42">t</tspan><tspan x="13.38" y="179.42">e doen. Het mie</tspan><tspan class="cls-10" x="177" y="179.42">z</tspan><tspan x="187.49" y="179.42">e</tspan><tspan class="cls-9" x="199.97" y="179.42">r</tspan><tspan x="208.72" y="179.42">t een beetje en het </tspan><tspan class="cls-5" x="408.99" y="179.42">w</tspan><tspan x="427.23" y="179.42">aai</tspan><tspan class="cls-20" x="457.08" y="179.42">t</tspan><tspan x="465.26" y="179.42">. </tspan><tspan class="cls-8" x="475.7" y="179.42">I</tspan><tspan x="481.9" y="179.42">k s</tspan><tspan class="cls-7" x="508.74" y="179.42">t</tspan><tspan x="516.84" y="179.42">op mijn</tspan><tspan x="0" y="209.32">hoo</tspan><tspan class="cls-26" x="41.19" y="209.32">f</tspan><tspan x="48.14" y="209.32">d diep in mijn </tspan><tspan class="cls-27" x="196.04" y="209.32">k</tspan><tspan class="cls-3" x="208.15" y="209.32">r</tspan><tspan x="216.17" y="209.32">aa</tspan><tspan class="cls-11" x="240.19" y="209.32">g</tspan><tspan x="253.75" y="209.32">. </tspan><tspan class="cls-17" x="0" y="269.13">D</tspan><tspan x="16.7" y="269.13">e mensen </tspan><tspan class="cls-28" x="123.02" y="269.13">k</tspan><tspan x="135.13" y="269.13">ijken om, </tspan><tspan x="0" y="299.03">ik zie </tspan><tspan class="cls-10" x="57.06" y="299.03">z</tspan><tspan x="67.55" y="299.03">e smoe</tspan><tspan class="cls-24" x="142.14" y="299.03">z</tspan><tspan x="152.63" y="299.03">elen, </tspan><tspan x="0" y="328.93">ik hoor </tspan><tspan class="cls-10" x="77.42" y="328.93">z</tspan><tspan x="87.91" y="328.93">e fluis</tspan><tspan class="cls-7" x="148.14" y="328.93">t</tspan><tspan x="156.24" y="328.93">e</tspan><tspan class="cls-4" x="168.72" y="328.93">r</tspan><tspan x="176.62" y="328.93">en.</tspan><tspan x="0" y="388.74" xml:space="preserve">‘     Is d</tspan><tspan class="cls-5" x="66.73" y="388.74">a</tspan><tspan x="78.64" y="388.74">t nie</tspan><tspan class="cls-21" x="124.32" y="388.74">t</tspan><tspan x="132.49" y="388.74">..?</tspan><tspan class="cls-29" x="152.92" y="388.74"> </tspan><tspan class="cls-18" x="157.31" y="388.74">V</tspan><tspan x="170.39" y="388.74">olgens mij is d</tspan><tspan class="cls-5" x="318.34" y="388.74">a</tspan><tspan class="cls-21" x="330.25" y="388.74">t</tspan><tspan x="338.42" y="388.74">... Ja hoo</tspan><tspan class="cls-30" x="426.88" y="388.74">r</tspan><tspan x="433.71" y="388.74">, </tspan><tspan class="cls-10" x="444.15" y="388.74">z</tspan><tspan x="454.64" y="388.74">eker </tspan><tspan class="cls-31" x="504.73" y="388.74">w</tspan><tspan x="522.82" y="388.74">e</tspan><tspan class="cls-7" x="535.3" y="388.74">t</tspan><tspan x="543.4" y="388.74">en, het</tspan><tspan x="0" y="418.64" xml:space="preserve">          is</tspan><tspan class="cls-16" x="68.52" y="418.64"> </tspan><tspan class="cls-32" x="71.74" y="418.64">‘</tspan><tspan class="cls-33" x="76.32" y="418.64">m</tspan><tspan class="cls-34" x="97.1" y="418.64">.</tspan><tspan class="cls-35" x="99.45" y="418.64">’</tspan><tspan x="102.46" y="418.64"> </tspan><tspan class="cls-21" x="107.74" y="418.64">A</tspan><tspan x="122.92" y="418.64">lsof het uitsp</tspan><tspan class="cls-4" x="256.61" y="418.64">r</tspan><tspan x="264.51" y="418.64">eken </tspan><tspan class="cls-36" x="320.28" y="418.64">v</tspan><tspan class="cls-37" x="332.16" y="418.64">an mijn naam in mijn nabij</tspan><tspan x="0" y="448.55" xml:space="preserve">             -heid een dood</tspan><tspan class="cls-10" x="227.35" y="448.55">z</tspan><tspan x="237.84" y="448.55">onde i</tspan><tspan class="cls-38" x="303.01" y="448.55">s</tspan><tspan x="312.6" y="448.55">. </tspan><tspan class="cls-21" x="323.04" y="448.55">A</tspan><tspan x="338.22" y="448.55">nde</tspan><tspan class="cls-4" x="378.59" y="448.55">r</tspan><tspan x="386.49" y="448.55">en nege</tspan><tspan class="cls-4" x="470.81" y="448.55">r</tspan><tspan x="478.71" y="448.55">en </tspan><tspan class="cls-10" x="510.31" y="448.55">z</tspan><tspan x="520.8" y="448.55">o </tspan><tspan x="0" y="478.45" xml:space="preserve">                ac</tspan><tspan class="cls-5" x="107.69" y="478.45">h</tspan><tspan class="cls-7" x="121.42" y="478.45">t</tspan><tspan x="129.52" y="478.45">eloos mogelijk</tspan><tspan x="0" y="508.35" xml:space="preserve">                    mijn aa</tspan><tspan class="cls-26" x="181.45" y="508.35">n</tspan><tspan class="cls-4" x="194.95" y="508.35">w</tspan><tspan x="213.05" y="508.35">ezigheid in het hier en n</tspan><tspan class="cls-39" x="463.23" y="508.35">u</tspan><tspan x="476.76" y="508.35">. </tspan><tspan x="0" y="598.06" xml:space="preserve">                                      </tspan><tspan class="cls-21" x="200.72" y="598.06">A</tspan><tspan x="215.9" y="598.06">ls ik e</tspan><tspan class="cls-39" x="272.22" y="598.06">r</tspan><tspan x="280.17" y="598.06">gens kom, </tspan><tspan x="0" y="627.96" xml:space="preserve">                                           </tspan><tspan class="cls-4" x="227.14" y="627.96">v</tspan><tspan x="238.87" y="627.96">e</tspan><tspan class="cls-3" x="251.36" y="627.96">r</tspan><tspan x="259.38" y="627.96">ande</tspan><tspan class="cls-9" x="311.76" y="627.96">r</tspan><tspan x="320.51" y="627.96">t alle</tspan><tspan class="cls-38" x="370.29" y="627.96">s</tspan><tspan x="379.89" y="627.96">. </tspan></text><rect class="cls-40" x="266" y="-2" width="732" height="771"/><path d="M554,0C523.87,6.3,376.05,40.3,315,166c-67.7,139.38,20.32,290.55,66,369,76.31,131,183.66,201.61,242,234L0,768V0Z"/><path d="M838,0c28.7,48.33,107.33,194.91,89,394C908.45,595.42,802.11,726.14,765,768h601V0Z"/><path class="cls-41" d="M838,0c28.7,48.33,107.33,194.91,89,394C908.45,595.42,802.11,726.14,765,768h601V0Z"/><path class="cls-42" d="M554,0C523.87,6.3,376.05,40.3,315,166c-67.7,139.38,20.32,290.55,66,369,76.31,131,183.66,201.61,242,234L0,768V0Z"/><g class="cls-43"><path class="cls-44" d="M733,423q0-104.1,10.53-196.62t28.71-161.2Q790.42-3.46,814.93-43.25T867-83q27.57,0,52.07,39.75T961.74,65.18q18.18,68.69,28.71,161.2T1001,423q0,104.09-10.53,196.62t-28.71,161.2q-18.18,68.68-42.68,108.42T867,929q-27.57,0-52.06-39.76T772.24,780.82q-18.18-68.66-28.71-161.2T733,423Zm36,0q0,76.63,7.65,143.85T797.7,684.68q13.39,50.61,31.2,79.51T867,793.1q20.29,0,38.09-28.91t31.2-79.51q13.4-50.59,21.06-117.83A1274.55,1274.55,0,0,0,965,423a1274.55,1274.55,0,0,0-7.66-143.85q-7.67-67.23-21.06-117.83t-31.2-79.51Q887.28,52.91,867,52.89T828.9,81.81q-17.8,28.93-31.2,79.51T776.64,279.15Q769,346.37,769,423Zm98,332.51q-18.37,0-34.26-26t-28-71.56q-12.06-45.54-18.95-105.53A1137.92,1137.92,0,0,1,778.94,423a1138.18,1138.18,0,0,1,6.89-129.4q6.9-60,18.95-105.53t28-71.56q15.87-26,34.26-26t34.26,26q15.88,26,28,71.56T948.15,293.6A1138.18,1138.18,0,0,1,955,423a1137.92,1137.92,0,0,1-6.89,129.4q-6.89,60-18.95,105.53t-28,71.56Q885.37,755.52,867,755.51ZM813.39,423a692.28,692.28,0,0,0,4.22,78.79q4.2,36.87,11.48,64.33t17,43.38q9.76,15.91,20.86,15.9t20.87-15.9q9.75-15.9,17-43.38t11.49-64.33A697,697,0,0,0,920.59,423a697.26,697.26,0,0,0-4.21-78.79q-4.23-36.87-11.49-64.33t-17-43.38Q878.1,220.62,867,220.59T846.13,236.5q-9.76,15.93-17,43.38t-11.48,64.33A692.53,692.53,0,0,0,813.39,423Z"/><path class="cls-45" d="M966.17-43.6h109.37v253h-50.1v107h49.26v240h-49.26V667.7h52v253H966.17ZM1056.89,805v-34.7h-55.66V453.73h52.88V419h-52.88V106.75h55.66V72.05H994V805Z"/><path class="cls-46" d="M1056.59-43.6h49L1154,326.51,1202.15-43.6h49V920.7h-59.28v-347L1154,862.87l-38.13-289.15v347h-59.28ZM1091.66,805V141.45L1154,612.76l62.06-471.31V805h7.24v-733h-7.24L1154,547.7,1091.66,72.05h-7.24V805Z"/><path class="cls-47" d="M1234.58,920.7V-43.6h51.49q26.16,0,46.62,30.36t34.51,91.08q14,60.72,21.43,151.08t7.37,208.9q0,118.56-7.37,208.91T1367.2,797.81q-14.06,60.72-34.51,91.8t-46.62,31.09ZM1262.42,805h23.65q40.64,0,61.37-96.14t20.73-271.08q0-174.9-20.73-270.34t-61.37-95.43h-23.65Zm7.23-34.7V106.75h16.42q35.34,0,55,83.14t19.62,247.93q0,164.82-19.62,248.67t-55,83.85ZM1293.86,646q20.88,0,32.29-51.32t11.41-156.87q0-105.51-11.41-156.13t-32.29-50.6Z"/></g><g class="cls-48"><path class="cls-49" d="M.72-179H108.66q20.67,0,37.84,17.7t29.37,52.36q12.19,34.64,19,86.21t6.83,120.87q0,49.3-3.31,83.92t-7,57.74Q186.82,267.52,181,286q9.09,21.57,16.54,55.42,6.21,29.28,11.38,73.91t5.16,109.32q0,73.9-7,134T187,761q-13,42.38-31.85,64.67t-42,22.33H.72ZM101.63,724.8q36.39,0,53.77-58.51t17.37-155.51q0-63.11-7.24-100.85T150,350.65q-10.35-24.6-22.75-33.87,9.93-10.75,17.79-33.87,7-20,12.61-54.67t5.59-88.52q0-97-16.55-146.28T101.63-55.83H42.08V724.8ZM52.83,298.3V-18.88h48.8q26.88,0,38.67,43.89t11.79,114.71q0,70.83-11.79,114.71T101.63,298.3Zm0,389.54V335.25h48.39q12.81,0,23.78,10t19.23,30.8q8.27,20.79,13,54.66T162,510.78q0,93.94-16.75,135.5t-44,41.56Zm63.69-554.28q0-70.8-20.68-70.83H85.92V204.38h9.92Q116.53,204.38,116.52,133.56ZM95.84,606.25q31.43,0,31.43-89.31t-31.43-89.3H85.92V606.25Z"/><path class="cls-50" d="M183.36-102h152V150H265.75V256.54h68.47v239H265.75V606.48h72.34v252H183.36Zm126.1,845.31V708.72H232.1V393.35h73.49V358.79H232.1v-311h77.36V13.17H222V743.28Z"/><path class="cls-51" d="M332.35-110.62H422.9q25.19,0,46.65,24.92t37.21,73.28Q522.5,36,531.36,107t8.86,163.44q0,73.3-5.51,124.58t-12.21,85q-7.87,38.15-17.71,64.5L554,867H455.58L416.2,619.3V867H332.35ZM414.24,527q15.35,0,29.92-11.73l37.4,234.51h12.2L454.39,503.51q21.27-27.83,33.86-85.75t12.6-150.23q0-64.48-6.69-112.86T475.85,73.32q-11.62-33-27.36-49.83T414.24,6.64H371.72v743.1H382V527ZM382,491.78v-450h32.29q35.82,0,56.1,58.64t20.27,167.08q0,108.48-20.27,166.36t-56.1,57.89ZM416.2,370.13h4.34q15,0,25.39-24.92t10.43-83.54q0-58.61-10.43-83.55t-25.39-24.91H416.2Z"/></g><path class="cls-52" d="M554,0C523.87,6.3,376.05,40.3,315,166c-67.7,139.38,20.32,290.55,66,369,76.31,131,183.66,201.61,242,234L0,768V0Z"/><path class="cls-53" d="M838,0c28.7,48.33,107.33,194.91,89,394C908.45,595.42,802.11,726.14,765,768h601V0Z"/></g></svg>