<svg xmlns="http://www.w3.org/2000/svg" viewBox="0 0 34.75 28.83"><defs><style>.cls-1,.cls-2{fill:none;stroke:#000;stroke-width:0.75px;}.cls-1{stroke-miterlimit:10;}.cls-2{stroke-linejoin:round;}</style></defs><title>like</title><g id="Laag_2" data-name="Laag 2"><g id="Laag_1-2" data-name="Laag 1"><rect class="cls-1" x="0.38" y="9.07" width="10.56" height="19.39" rx="4.09"/><path class="cls-2" d="M10.94,25h2.31a9.39,9.39,0,0,0,.87.58,14.46,14.46,0,0,0,6.37,2H30.61a2.38,2.38,0,0,0,2-2.89A2.3,2.3,0,0,0,30,23.54a2.57,2.57,0,0,0,3.19-2,2.53,2.53,0,0,0-2.61-2.31,2.44,2.44,0,0,0,3.19-1.45,2.4,2.4,0,0,0-2.32-2.31,2.4,2.4,0,0,0,2.89-2,2.38,2.38,0,0,0-2.6-2H24.25c.05-.33.14-.83.29-1.44.51-2.06,1.13-2.88,1.44-4a6.71,6.71,0,0,0-.29-4A2.49,2.49,0,0,0,24,.39,2.56,2.56,0,0,0,21.35,2.7a8.13,8.13,0,0,1-.86,2.9C20,6.6,19.35,7.23,17,9.36c-.84.77-1.81,1.64-2.89,2.6H10.94Z"/><circle cx="7.61" cy="24.84" r="1.3"/></g></g></svg>